<?xml version="1.0" encoding="utf-8"?>
<!-- Generator: Adobe Illustrator 18.1.1, SVG Export Plug-In . SVG Version: 6.00 Build 0)  -->
<svg version="1.1" id="Layer_1" xmlns="http://www.w3.org/2000/svg" xmlns:xlink="http://www.w3.org/1999/xlink" x="0px" y="0px"
	 viewBox="0 0 1086.2 151.6" enable-background="new 0 0 1086.2 151.6" xml:space="preserve">
<g>
	<path fill="none" stroke="#FFFFFF" stroke-width="7" stroke-miterlimit="10" d="M90.3,6.7h31.2v139.8H90.3v-55H34.7v55H3.5V6.7
		h31.2v58.4h55.6V6.7z"/>
	<path fill="none" stroke="#FFFFFF" stroke-width="7" stroke-miterlimit="10" d="M273.5,127.2c-14.1,13.8-31.5,20.7-52.2,20.7
		c-20.7,0-38.1-6.9-52.2-20.7c-14.1-13.8-21.2-31-21.2-51.5c0-20.5,7.1-37.7,21.2-51.5c14.1-13.8,31.5-20.7,52.2-20.7
		c20.7,0,38.1,6.9,52.2,20.7c14.1,13.8,21.2,31,21.2,51.5C294.7,96.2,287.6,113.4,273.5,127.2z M262.9,75.8c0-12.5-4-23.1-12-31.9
		c-8-8.8-17.8-13.2-29.5-13.2c-11.7,0-21.5,4.4-29.5,13.2c-8,8.8-12,19.4-12,31.9c0,12.5,4,23.1,12,31.8c8,8.7,17.8,13.1,29.5,13.1
		c11.7,0,21.5-4.4,29.5-13.1C258.9,98.9,262.9,88.3,262.9,75.8z"/>
	<path fill="none" stroke="#FFFFFF" stroke-width="7" stroke-miterlimit="10" d="M417.1,6.7v27.4h-64.8v30.2h61.6v27.4h-61.6v54.8
		h-31.2V6.7H417.1z"/>
	<path fill="none" stroke="#FFFFFF" stroke-width="7" stroke-miterlimit="10" d="M539.5,6.7v27.4h-64.8v30.2h61.6v27.4h-61.6v54.8
		h-31.2V6.7H539.5z"/>
	<path fill="none" stroke="#FFFFFF" stroke-width="7" stroke-miterlimit="10" d="M625.1,33.7v112.8h-31.2V33.7h-39.6v-27h110.4v27
		H625.1z"/>
	<path fill="none" stroke="#FFFFFF" stroke-width="7" stroke-miterlimit="10" d="M788.3,6.7v27.8h-69.6v28.8h62.6v26.6h-62.6v29
		h71.8v27.6h-103V6.7H788.3z"/>
	<path fill="none" stroke="#FFFFFF" stroke-width="7" stroke-miterlimit="10" d="M882.5,118.9c15.3,0,27.9-6.1,37.6-18.2l20,20.6
		c-15.9,17.9-34.6,26.8-56.1,26.8c-21.5,0-39.3-6.8-53.2-20.4c-13.9-13.6-20.9-30.8-20.9-51.5c0-20.7,7.1-38,21.3-51.9
		c14.2-13.9,31.6-20.8,52.1-20.8c22.9,0,42.1,8.7,57.6,26.2l-19.4,22c-9.9-12.3-22.1-18.4-36.8-18.4c-11.7,0-21.8,3.8-30.1,11.5
		c-8.3,7.7-12.5,18-12.5,31s3.9,23.4,11.8,31.3C861.8,115,871.3,118.9,882.5,118.9z"/>
	<path fill="none" stroke="#FFFFFF" stroke-width="7" stroke-miterlimit="10" d="M1051.5,6.7h31.2v139.8h-31.2v-55h-55.6v55h-31.2
		V6.7h31.2v58.4h55.6V6.7z"/>
</g>
</svg>
